<?xml version="1.0" encoding="UTF-8" standalone="no"?>
<!-- Generator: Adobe Illustrator 16.0.0, SVG Export Plug-In . SVG Version: 6.00 Build 0)  -->

<svg
   xmlns:dc="http://purl.org/dc/elements/1.1/"
   xmlns:cc="http://creativecommons.org/ns#"
   xmlns:rdf="http://www.w3.org/1999/02/22-rdf-syntax-ns#"
   xmlns:svg="http://www.w3.org/2000/svg"
   xmlns="http://www.w3.org/2000/svg"
   xmlns:sodipodi="http://sodipodi.sourceforge.net/DTD/sodipodi-0.dtd"
   xmlns:inkscape="http://www.inkscape.org/namespaces/inkscape"
   version="1.1"
   id="Capa_1"
   x="0px"
   y="0px"
   width="180.915px"
   height="180.915px"
   viewBox="0 0 180.915 180.915"
   style="enable-background:new 0 0 180.915 180.915;"
   xml:space="preserve"
   sodipodi:docname="brain.svg"
   inkscape:export-filename="E:\Github\ParrotJapanese\images\brain.png"
   inkscape:export-xdpi="271.69"
   inkscape:export-ydpi="271.69"
   inkscape:version="0.92.1 r15371"><metadata
     id="metadata43"><rdf:RDF><cc:Work
         rdf:about=""><dc:format>image/svg+xml</dc:format><dc:type
           rdf:resource="http://purl.org/dc/dcmitype/StillImage" /></cc:Work></rdf:RDF></metadata><defs
     id="defs41" /><sodipodi:namedview
     pagecolor="#ffffff"
     bordercolor="#666666"
     borderopacity="1"
     objecttolerance="10"
     gridtolerance="10"
     guidetolerance="10"
     inkscape:pageopacity="0"
     inkscape:pageshadow="2"
     inkscape:window-width="1366"
     inkscape:window-height="705"
     id="namedview39"
     showgrid="false"
     inkscape:zoom="1.3044801"
     inkscape:cx="-40.245916"
     inkscape:cy="90.4575"
     inkscape:window-x="-8"
     inkscape:window-y="-8"
     inkscape:window-maximized="1"
     inkscape:current-layer="Capa_1" /><g
     id="g6"
     style="fill:#3c5cb2;fill-opacity:1"
     transform="translate(0,8)"><g
       id="g4"
       style="fill:#3c5cb2;fill-opacity:1"><path
         d="M 144.797,22.048 C 134.671,10.744 121.269,0.246 88.175,0.002 75.245,-0.099 55.509,2.955 40.153,19.198 30.861,29.014 24.001,41.396 25.968,61.655 c 0.423,4.396 6.695,9.478 2.281,17.973 0,0 -9.466,16.66 -9.14,19.437 0,0 -0.17,5.072 7.675,5.23 0,0 1.958,0.249 1.397,4.573 l -0.088,6.296 c 0,0 0.243,1.888 3.678,3.021 0,0 0.648,0.645 -0.323,1.887 0,0 -1.815,2.016 1.297,6.369 1.154,1.596 3.017,3.6 1.875,7.673 0,0 -1.464,7.929 1.635,9.804 0,0 3.529,4.189 17.726,2.441 4.957,-0.608 14.136,-3.008 19.604,3.849 0,0 13.064,24.825 14.054,30.708 0,0 22.311,-39.689 49.505,-45.821 0,0 -6.619,-14.949 6.868,-34.312 0,0 16.897,-22.295 17.403,-34.556 0.006,-0.008 4.469,-20.653 -16.618,-44.179 z m -22.085,73.99 c -11.49,0.383 -12.068,-7.283 -17.458,-13.25 -0.791,0.055 -1.553,0.131 -2.362,0.155 C 89.405,83.33 91.886,69.007 86.631,65.104 74.029,55.739 56.264,63.874 46.99,54.402 43.997,51.348 41.437,48.441 41.044,44.489 40.094,34.911 42.314,30.758 47.06,25.74 59.745,12.333 76.079,9.517 87.566,9.517 c 30.908,0.225 41.687,9.454 50.145,18.879 13.926,15.552 14.79,28.951 14.577,33.783 0.024,0.587 0.146,1.142 0.146,1.742 0.006,17.725 -13.311,31.556 -29.722,32.117 z"
         id="path2"
         inkscape:connector-curvature="0"
         style="fill:#3c5cb2;fill-opacity:1" /></g></g><g
     id="g8" /><g
     id="g10" /><g
     id="g12" /><g
     id="g14" /><g
     id="g16" /><g
     id="g18" /><g
     id="g20" /><g
     id="g22" /><g
     id="g24" /><g
     id="g26" /><g
     id="g28" /><g
     id="g30" /><g
     id="g32" /><g
     id="g34" /><g
     id="g36" /></svg>