<?xml version="1.0" encoding="UTF-8" standalone="no"?>
<!-- Generator: Adobe Illustrator 16.0.0, SVG Export Plug-In . SVG Version: 6.00 Build 0)  -->

<svg
   xmlns:dc="http://purl.org/dc/elements/1.1/"
   xmlns:cc="http://creativecommons.org/ns#"
   xmlns:rdf="http://www.w3.org/1999/02/22-rdf-syntax-ns#"
   xmlns:svg="http://www.w3.org/2000/svg"
   xmlns="http://www.w3.org/2000/svg"
   xmlns:sodipodi="http://sodipodi.sourceforge.net/DTD/sodipodi-0.dtd"
   xmlns:inkscape="http://www.inkscape.org/namespaces/inkscape"
   version="1.1"
   id="Capa_1"
   x="0px"
   y="0px"
   width="438.536px"
   height="438.536px"
   viewBox="0 0 438.536 438.536"
   style="enable-background:new 0 0 438.536 438.536;"
   xml:space="preserve"
   sodipodi:docname="bulb.svg"
   inkscape:version="0.92.1 r15371"
   inkscape:export-filename="D:\tmp\parrot\images\intro.png"
   inkscape:export-xdpi="112.08"
   inkscape:export-ydpi="112.08"><metadata
     id="metadata45"><rdf:RDF><cc:Work
         rdf:about=""><dc:format>image/svg+xml</dc:format><dc:type
           rdf:resource="http://purl.org/dc/dcmitype/StillImage" /></cc:Work></rdf:RDF></metadata><defs
     id="defs43" /><sodipodi:namedview
     pagecolor="#ffffff"
     bordercolor="#666666"
     borderopacity="1"
     objecttolerance="10"
     gridtolerance="10"
     guidetolerance="10"
     inkscape:pageopacity="0"
     inkscape:pageshadow="2"
     inkscape:window-width="1600"
     inkscape:window-height="838"
     id="namedview41"
     showgrid="false"
     inkscape:zoom="0.53815421"
     inkscape:cx="219.26801"
     inkscape:cy="219.26801"
     inkscape:window-x="-8"
     inkscape:window-y="-8"
     inkscape:window-maximized="1"
     inkscape:current-layer="Capa_1" /><g
     id="g8"
     transform="matrix(1,0,0,0.95,0,10.9634)"
     style="fill:#3c81b2;fill-opacity:1"><g
       id="g6"
       style="fill:#3c81b2;fill-opacity:1"><path
         d="M 352.733,75.226 C 344.267,58.955 333.134,45.439 319.339,34.685 305.538,23.933 289.926,15.462 272.518,9.275 255.1,3.094 237.349,0 219.266,0 201.183,0 183.434,3.09 166.019,9.276 148.602,15.463 132.994,23.933 119.193,34.686 105.397,45.44 94.261,58.953 85.791,75.227 c -8.47,16.274 -12.703,33.83 -12.703,52.677 0,29.502 9.805,55.006 29.409,76.516 8.567,9.324 15.656,17.604 21.271,24.838 5.617,7.228 11.279,16.316 16.989,27.261 5.708,10.944 8.945,21.176 9.707,30.696 -8.947,5.332 -13.418,13.135 -13.418,23.415 0,7.042 2.378,13.134 7.139,18.274 -4.76,5.14 -7.139,11.231 -7.139,18.273 0,9.897 4.285,17.604 12.85,23.131 -2.478,4.373 -3.715,8.847 -3.715,13.415 0,8.754 2.996,15.516 8.992,20.27 5.992,4.757 13.369,7.139 22.126,7.139 3.806,8.374 9.519,15.037 17.13,19.985 7.611,4.948 15.891,7.419 24.838,7.419 8.949,0 17.227,-2.471 24.838,-7.419 7.614,-4.948 13.329,-11.611 17.135,-19.985 8.754,0 16.132,-2.382 22.124,-7.139 5.995,-4.754 8.99,-11.516 8.99,-20.27 0,-4.568 -1.239,-9.042 -3.717,-13.415 8.562,-5.523 12.851,-13.233 12.851,-23.131 0,-7.042 -2.382,-13.134 -7.139,-18.273 4.757,-5.141 7.139,-11.232 7.139,-18.274 0,-10.28 -4.474,-18.083 -13.422,-23.415 0.763,-9.521 4,-19.752 9.708,-30.696 5.719,-10.944 11.376,-20.033 16.995,-27.261 5.619,-7.234 12.706,-15.515 21.265,-24.838 19.605,-21.51 29.414,-47.014 29.414,-76.516 -10e-4,-18.848 -4.237,-36.404 -12.715,-52.678 z m -43.249,104.066 c -1.906,2.093 -4.808,5.232 -8.709,9.421 -3.898,4.187 -6.8,7.324 -8.703,9.419 -24.362,29.126 -37.78,57.482 -40.255,85.078 h -65.1 c -2.474,-27.596 -15.891,-55.952 -40.256,-85.078 -1.903,-2.093 -4.805,-5.232 -8.709,-9.419 -3.899,-4.189 -6.805,-7.325 -8.708,-9.421 -12.941,-15.037 -19.414,-32.168 -19.414,-51.389 0,-13.706 3.284,-26.458 9.851,-38.262 6.571,-11.801 15.136,-21.458 25.697,-28.979 10.562,-7.521 22.266,-13.418 35.116,-17.701 12.847,-4.286 25.837,-6.423 38.972,-6.423 13.135,0 26.125,2.137 38.971,6.423 12.847,4.283 24.551,10.181 35.115,17.701 10.561,7.52 19.13,17.181 25.693,28.979 6.563,11.803 9.853,24.556 9.853,38.262 0,19.221 -6.471,36.352 -19.414,51.389 z"
         id="path2"
         inkscape:connector-curvature="0"
         style="fill:#3c81b2;fill-opacity:1" /><path
         d="m 247.674,86.795 c -9.418,-3.046 -18.891,-4.57 -28.404,-4.57 -2.474,0 -4.615,0.9 -6.423,2.712 -1.809,1.809 -2.712,3.949 -2.712,6.423 0,2.474 0.904,4.615 2.712,6.423 1.809,1.805 3.949,2.712 6.423,2.712 9.9,0 19.985,2.38 30.272,7.135 10.273,4.758 15.406,11.516 15.406,20.273 0,2.473 0.9,4.618 2.711,6.423 1.813,1.804 3.949,2.708 6.42,2.708 2.478,0 4.616,-0.901 6.427,-2.708 1.811,-1.809 2.71,-3.951 2.71,-6.423 0,-9.9 -3.572,-18.464 -10.704,-25.693 -7.132,-7.23 -15.417,-12.375 -24.838,-15.415 z"
         id="path4"
         inkscape:connector-curvature="0"
         style="fill:#3c81b2;fill-opacity:1" /></g></g><g
     id="g10" /><g
     id="g12" /><g
     id="g14" /><g
     id="g16" /><g
     id="g18" /><g
     id="g20" /><g
     id="g22" /><g
     id="g24" /><g
     id="g26" /><g
     id="g28" /><g
     id="g30" /><g
     id="g32" /><g
     id="g34" /><g
     id="g36" /><g
     id="g38" /></svg>