<?xml version="1.0" encoding="UTF-8" standalone="no"?>
<!-- Generator: Adobe Illustrator 16.0.0, SVG Export Plug-In . SVG Version: 6.00 Build 0)  -->

<svg
   xmlns:dc="http://purl.org/dc/elements/1.1/"
   xmlns:cc="http://creativecommons.org/ns#"
   xmlns:rdf="http://www.w3.org/1999/02/22-rdf-syntax-ns#"
   xmlns:svg="http://www.w3.org/2000/svg"
   xmlns="http://www.w3.org/2000/svg"
   xmlns:sodipodi="http://sodipodi.sourceforge.net/DTD/sodipodi-0.dtd"
   xmlns:inkscape="http://www.inkscape.org/namespaces/inkscape"
   version="1.1"
   id="Capa_1"
   x="0px"
   y="0px"
   width="449.653px"
   height="449.652px"
   viewBox="0 0 449.653 449.652"
   style="enable-background:new 0 0 449.653 449.652;"
   xml:space="preserve"
   sodipodi:docname="3d-dictionary.svg"
   inkscape:export-filename="D:\tmp\parrot\images\dictionary.png"
   inkscape:export-xdpi="109.31"
   inkscape:export-ydpi="109.31"
   inkscape:version="0.92.1 r15371"><metadata
     id="metadata49"><rdf:RDF><cc:Work
         rdf:about=""><dc:format>image/svg+xml</dc:format><dc:type
           rdf:resource="http://purl.org/dc/dcmitype/StillImage" /></cc:Work></rdf:RDF></metadata><defs
     id="defs47" /><sodipodi:namedview
     pagecolor="#ffffff"
     bordercolor="#666666"
     borderopacity="1"
     objecttolerance="10"
     gridtolerance="10"
     guidetolerance="10"
     inkscape:pageopacity="0"
     inkscape:pageshadow="2"
     inkscape:window-width="1600"
     inkscape:window-height="838"
     id="namedview45"
     showgrid="false"
     inkscape:zoom="0.52485032"
     inkscape:cx="224.82651"
     inkscape:cy="224.826"
     inkscape:window-x="-8"
     inkscape:window-y="-8"
     inkscape:window-maximized="1"
     inkscape:current-layer="Capa_1" /><g
     id="g12"
     transform="matrix(1,0,0,0.9,0,22.48265)"
     style="fill:#3c81b2;fill-opacity:1"><g
       id="g10"
       style="fill:#3c81b2;fill-opacity:1"><path
         d="m 78.35,70.451 c 0,6.904 5.597,12.5 12.5,12.5 h 239.534 v 310.521 c 0,6.902 5.598,12.5 12.5,12.5 6.903,0 12.5,-5.598 12.5,-12.5 V 70.451 c 0,-6.904 -5.597,-12.5 -12.5,-12.5 H 90.85 c -6.903,0 -12.5,5.597 -12.5,12.5 z"
         id="path2"
         inkscape:connector-curvature="0"
         style="fill:#3c81b2;fill-opacity:1" /><path
         d="M 402.042,0 H 84.557 C 80.418,0 76.549,2.048 74.221,5.47 L 37.305,59.742 c -1.41,2.073 -2.164,4.522 -2.164,7.029 L 35.11,409.05 c 0,0.299 0.011,0.595 0.031,0.888 v 27.215 c 0,6.904 5.597,12.5 12.5,12.5 h 298.485 c 1.51,0 2.957,-0.269 4.297,-0.758 1.517,-0.426 2.95,-1.136 4.223,-2.108 l 54.992,-42.067 c 3.093,-2.364 4.905,-6.035 4.905,-9.928 V 12.5 C 414.542,5.596 408.946,0 402.042,0 Z m -12.5,388.615 -47.109,36.037 H 60.14 v -15.599 c 0,-0.297 -0.011,-0.593 -0.031,-0.885 L 60.14,70.622 91.172,25 h 298.37 z"
         id="path4"
         inkscape:connector-curvature="0"
         style="fill:#3c81b2;fill-opacity:1" /><path
         d="m 167.417,188.772 c -0.938,-2.749 -3.521,-4.596 -6.426,-4.596 h -12.553 c -2.909,0 -5.492,1.851 -6.429,4.605 l -35.738,105.182 c -0.702,2.069 -0.361,4.364 0.909,6.137 1.271,1.775 3.334,2.836 5.52,2.836 h 7.711 c 2.937,0 5.527,-1.873 6.447,-4.66 l 10.096,-30.575 h 34.874 l 10.402,30.63 c 0.936,2.755 3.52,4.605 6.429,4.605 h 8.225 c 2.186,0 4.25,-1.062 5.522,-2.838 1.271,-1.778 1.609,-4.074 0.903,-6.145 z m -25.209,60.888 9.467,-27.971 0.038,-0.116 c 0.866,-2.733 1.724,-5.609 2.589,-8.686 0.816,2.874 1.729,5.868 2.79,8.98 l 9.455,27.792 z"
         id="path6"
         inkscape:connector-curvature="0"
         style="fill:#3c81b2;fill-opacity:1" /><path
         d="m 259.342,213.926 c -9.699,0 -18.175,3.136 -24.39,8.931 v -32.174 c 0,-3.744 -3.046,-6.79 -6.789,-6.79 h -7.686 c -1.813,0 -3.519,0.706 -4.801,1.989 -1.282,1.282 -1.988,2.987 -1.988,4.801 l 0.006,105.463 c 0,3.744 3.046,6.789 6.789,6.789 h 6.098 c 3.743,0 6.789,-3.045 6.789,-6.789 0,-0.086 -0.002,-0.174 -0.005,-0.26 6.055,5.896 14.041,8.877 23.814,8.877 10.155,0 20.046,-4.268 27.136,-11.709 8.047,-8.446 12.3,-20.437 12.3,-34.66 0.096,-13.981 -4.289,-26.149 -12.347,-34.26 -6.63,-6.678 -15.252,-10.208 -24.926,-10.208 z m 11.969,67.404 c -3.342,3.406 -7.689,5.062 -13.291,5.062 -5.318,0 -9.387,-1.563 -12.437,-4.778 -7.46,-7.868 -6.817,-22.962 -6.812,-23.091 0.006,-0.092 0.009,-0.201 0.011,-0.29 0.019,-1.06 0.664,-25.935 19.735,-25.935 19.158,0 20.52,25.002 20.565,26.006 0.071,4.134 -1.197,16.327 -7.771,23.026 z"
         id="path8"
         inkscape:connector-curvature="0"
         style="fill:#3c81b2;fill-opacity:1" /></g></g><g
     id="g14" /><g
     id="g16" /><g
     id="g18" /><g
     id="g20" /><g
     id="g22" /><g
     id="g24" /><g
     id="g26" /><g
     id="g28" /><g
     id="g30" /><g
     id="g32" /><g
     id="g34" /><g
     id="g36" /><g
     id="g38" /><g
     id="g40" /><g
     id="g42" /></svg>