<?xml version="1.0" encoding="UTF-8" standalone="no"?>
<!-- Generator: Adobe Illustrator 16.0.0, SVG Export Plug-In . SVG Version: 6.00 Build 0)  -->

<svg
   xmlns:dc="http://purl.org/dc/elements/1.1/"
   xmlns:cc="http://creativecommons.org/ns#"
   xmlns:rdf="http://www.w3.org/1999/02/22-rdf-syntax-ns#"
   xmlns:svg="http://www.w3.org/2000/svg"
   xmlns="http://www.w3.org/2000/svg"
   xmlns:sodipodi="http://sodipodi.sourceforge.net/DTD/sodipodi-0.dtd"
   xmlns:inkscape="http://www.inkscape.org/namespaces/inkscape"
   version="1.1"
   id="Capa_1"
   x="0px"
   y="0px"
   width="794.082px"
   height="794.082px"
   viewBox="0 0 794.082 794.082"
   style="enable-background:new 0 0 794.082 794.082;"
   xml:space="preserve"
   sodipodi:docname="grammar.svg"
   inkscape:export-filename="E:\Github\ParrotJapanese\images\grammar.png"
   inkscape:export-xdpi="61.900002"
   inkscape:export-ydpi="61.900002"
   inkscape:version="0.92.1 r15371"><metadata
     id="metadata53"><rdf:RDF><cc:Work
         rdf:about=""><dc:format>image/svg+xml</dc:format><dc:type
           rdf:resource="http://purl.org/dc/dcmitype/StillImage" /></cc:Work></rdf:RDF></metadata><defs
     id="defs51" /><sodipodi:namedview
     pagecolor="#ffffff"
     bordercolor="#666666"
     borderopacity="1"
     objecttolerance="10"
     gridtolerance="10"
     guidetolerance="10"
     inkscape:pageopacity="0"
     inkscape:pageshadow="2"
     inkscape:window-width="1366"
     inkscape:window-height="705"
     id="namedview49"
     showgrid="false"
     inkscape:zoom="0.29719854"
     inkscape:cx="-177.9698"
     inkscape:cy="398.03536"
     inkscape:window-x="-8"
     inkscape:window-y="-8"
     inkscape:window-maximized="1"
     inkscape:current-layer="Capa_1" /><g
     id="g16"
     style="fill:#3c5cb2;fill-opacity:1"
     transform="matrix(0.95,0,0,0.95,19.852089,19.85205)"><path
       d="m 713.298,186.754 h 0.003 c 0,90.051 0,179.204 0,269.796 -119.669,0.52 -237.33,0.62 -357.021,0.442 0,-44.206 0,-85.371 0,-127.49 -17.63,0 -33.229,0 -52.015,0 0,44.361 -1.585,86.458 0.541,128.362 1.495,29.475 29.195,51.681 59.068,51.744 114.688,0.25 229.375,0.143 344.062,0.619 34.097,0.146 60.201,-24.021 60.039,-60.542 -0.386,-87.645 -0.106,-175.291 -0.096,-262.936 h 0.096 v -45.693 h -54.678 z"
       id="path2"
       inkscape:connector-curvature="0"
       style="fill:#3c5cb2;fill-opacity:1" /><path
       d="m 775.44,72.811 c -5.709,-1.829 -12.212,-1.547 -18.359,-1.557 -57.313,-0.103 -114.627,-0.062 -171.938,-0.062 -4.248,0 -8.469,0 -12.485,0 C 570.89,52.408 555.089,37.71 535.844,37.71 c -19.245,0 -35.052,14.699 -36.817,33.482 -4.446,0 -9.112,0 -13.8,0 -55.239,0 -110.48,-0.002 -165.728,0.004 -4.833,0.001 -9.71,-0.352 -14.491,0.173 -14.131,1.546 -26.798,14.699 -26.558,27.161 0.239,12.377 13.224,25.016 27.354,26.417 3.421,0.34 6.902,0.102 10.354,0.102 147.084,0.003 294.167,0.003 441.25,10e-4 3.455,0 6.929,0.237 10.354,-0.082 13.365,-1.242 25.063,-12.418 26.25,-24.873 0.95,-10.068 -7.683,-23.794 -18.572,-27.284 z"
       id="path4"
       inkscape:connector-curvature="0"
       style="fill:#3c5cb2;fill-opacity:1" /><path
       d="m 358.014,201.16 v -60.099 h -54.678 v 60.099 h 2.078 c 17.43,0 33.452,0 50.521,0 z"
       id="path6"
       inkscape:connector-curvature="0"
       style="fill:#3c5cb2;fill-opacity:1" /><g
       id="g12"
       style="fill:#3c5cb2;fill-opacity:1"><circle
         cx="149.11301"
         cy="113.355"
         r="89.042999"
         id="circle8"
         style="fill:#3c5cb2;fill-opacity:1" /><path
         d="M 439.494,215.397 H 211.476 l -11.131,69.235 -10.105,62.865 h -13.219 l -8.515,-96.739 9.972,-35.357 h -58.729 l 9.972,35.357 -8.515,96.739 H 107.987 L 100,297.809 89.958,235.343 86.751,215.398 H 50 49.875 v 0.003 C 22.317,215.468 0,237.825 0,265.398 v 212.99 c 0,27.612 22.386,50 50,50 v 187.548 c 0,27.614 22.386,50 50,50 24.416,0 44.731,-17.505 49.112,-40.646 4.382,23.142 24.699,40.646 49.115,40.646 27.614,0 50,-22.386 50,-50 V 503.403 414.59 315.4 h 191.269 c 27.613,0 50,-22.387 50,-50 -0.002,-27.617 -22.387,-50.003 -50.002,-50.003 z"
         id="path10"
         inkscape:connector-curvature="0"
         style="fill:#3c5cb2;fill-opacity:1" /></g><path
       d="m 683.544,718.137 0.038,-0.039 -119.625,-119.625 v -69.024 h -56.055 v 64.062 4.963 l -119.624,119.624 0.038,0.039 c -10.936,10.935 -10.936,28.663 0,39.598 10.936,10.937 28.663,10.936 39.599,0 l 79.988,-79.988 v 64.023 c 0,15.464 12.534,28 28,28 15.464,0 28,-12.536 28,-28 h 0.055 v -64.023 l 79.988,79.988 c 10.936,10.936 28.663,10.937 39.599,0 10.934,-10.935 10.934,-28.663 -10e-4,-39.598 z"
       id="path14"
       inkscape:connector-curvature="0"
       style="fill:#3c5cb2;fill-opacity:1" /></g><g
     id="g18" /><g
     id="g20" /><g
     id="g22" /><g
     id="g24" /><g
     id="g26" /><g
     id="g28" /><g
     id="g30" /><g
     id="g32" /><g
     id="g34" /><g
     id="g36" /><g
     id="g38" /><g
     id="g40" /><g
     id="g42" /><g
     id="g44" /><g
     id="g46" /></svg>