<?xml version="1.0" encoding="UTF-8" standalone="no"?>
<!-- Generator: Adobe Illustrator 19.0.0, SVG Export Plug-In . SVG Version: 6.00 Build 0)  -->

<svg
   xmlns:dc="http://purl.org/dc/elements/1.1/"
   xmlns:cc="http://creativecommons.org/ns#"
   xmlns:rdf="http://www.w3.org/1999/02/22-rdf-syntax-ns#"
   xmlns:svg="http://www.w3.org/2000/svg"
   xmlns="http://www.w3.org/2000/svg"
   xmlns:sodipodi="http://sodipodi.sourceforge.net/DTD/sodipodi-0.dtd"
   xmlns:inkscape="http://www.inkscape.org/namespaces/inkscape"
   sodipodi:docname="icon.svg"
   height="512px"
   width="512px"
   xml:space="preserve"
   style="enable-background:new 0 0 512 512;"
   viewBox="0 0 512 512"
   y="0px"
   x="0px"
   id="Layer_1"
   version="1.1"
   inkscape:version="0.92.1 r15371"
   inkscape:export-filename="E:\Github\ParrotJapanese\images\ic_launcher.png"
   inkscape:export-xdpi="96"
   inkscape:export-ydpi="96"><metadata
     id="metadata61"><rdf:RDF><cc:Work
         rdf:about=""><dc:format>image/svg+xml</dc:format><dc:type
           rdf:resource="http://purl.org/dc/dcmitype/StillImage" /></cc:Work></rdf:RDF></metadata><defs
     id="defs59" /><sodipodi:namedview
     inkscape:current-layer="Layer_1"
     inkscape:window-maximized="1"
     inkscape:window-y="-8"
     inkscape:window-x="-8"
     inkscape:cy="299.18907"
     inkscape:cx="170.56692"
     inkscape:zoom="0.921875"
     showgrid="false"
     id="namedview57"
     inkscape:window-height="705"
     inkscape:window-width="1366"
     inkscape:pageshadow="2"
     inkscape:pageopacity="0"
     guidetolerance="10"
     gridtolerance="10"
     objecttolerance="10"
     borderopacity="1"
     bordercolor="#666666"
     pagecolor="#ffffff" /><g
     inkscape:groupmode="layer"
     id="layer1"
     inkscape:label="background"><circle
       style="opacity:1;fill:#3c5cb2;fill-opacity:1;stroke:none;stroke-width:4.83199739;stroke-linecap:round;stroke-linejoin:round;stroke-miterlimit:4;stroke-dasharray:none;stroke-opacity:1"
       id="path4539"
       cx="256"
       cy="256"
       r="243.2"
       inkscape:export-xdpi="96"
       inkscape:export-ydpi="96" /></g><g
     transform="matrix(0.6,0,0,0.6,102.3997,102.3997)"
     id="g6"
     style="fill:#fffcff;fill-opacity:1"><g
       id="g4"
       style="fill:#fffcff;fill-opacity:1"><path
         d="M 256.001,0 C 105.327,0 43.866,103.75 43.866,358.104 v 7.883 l 6.087,5.008 c 2.121,1.745 53.599,43.797 197.072,135.282 l 8.975,5.724 8.975,-5.724 C 408.448,414.792 459.927,372.741 462.047,370.995 l 6.088,-5.008 v -7.883 C 468.137,103.75 406.677,0 256.001,0 Z m -102.81,140.426 c 0,-11.42 9.102,-20.67 20.286,-20.67 11.199,0 20.298,9.249 20.298,20.67 0,11.419 -9.1,20.676 -20.298,20.676 -11.184,0 -20.286,-9.257 -20.286,-20.676 z m 108.58,272.118 -5.77,5.518 -5.77,-5.518 c -2.63,-2.515 -64.409,-62.511 -64.409,-141.335 0,-41.996 17.98,-70.745 33.064,-87.469 16.343,-18.117 32.735,-26.311 33.425,-26.65 l 3.69,-1.819 3.69,1.819 c 0.689,0.341 17.082,8.533 33.424,26.65 15.084,16.722 33.064,45.472 33.064,87.469 0.001,78.823 -61.778,138.819 -64.408,141.335 z m 76.602,-251.288 c -11.292,0 -20.453,-9.326 -20.453,-20.83 0,-11.504 9.16,-20.83 20.453,-20.83 11.279,0 20.439,9.326 20.439,20.83 0,11.504 -9.161,20.83 -20.439,20.83 z"
         id="path2"
         inkscape:connector-curvature="0"
         style="fill:#fffcff;fill-opacity:1" /></g></g></svg>