<?xml version="1.0" encoding="UTF-8" standalone="no"?>
<!-- Generator: Adobe Illustrator 19.0.0, SVG Export Plug-In . SVG Version: 6.00 Build 0)  -->

<svg
   xmlns:dc="http://purl.org/dc/elements/1.1/"
   xmlns:cc="http://creativecommons.org/ns#"
   xmlns:rdf="http://www.w3.org/1999/02/22-rdf-syntax-ns#"
   xmlns:svg="http://www.w3.org/2000/svg"
   xmlns="http://www.w3.org/2000/svg"
   xmlns:sodipodi="http://sodipodi.sourceforge.net/DTD/sodipodi-0.dtd"
   xmlns:inkscape="http://www.inkscape.org/namespaces/inkscape"
   sodipodi:docname="parrot.svg"
   height="512px"
   width="512px"
   xml:space="preserve"
   style="enable-background:new 0 0 512 512;"
   viewBox="0 0 512 512"
   y="0px"
   x="0px"
   id="Layer_1"
   version="1.1"
   inkscape:version="0.92.1 r15371"
   inkscape:export-filename="D:\tmp\parrot_90.png"
   inkscape:export-xdpi="96"
   inkscape:export-ydpi="96"><metadata
     id="metadata61"><rdf:RDF><cc:Work
         rdf:about=""><dc:format>image/svg+xml</dc:format><dc:type
           rdf:resource="http://purl.org/dc/dcmitype/StillImage" /></cc:Work></rdf:RDF></metadata><defs
     id="defs59" /><sodipodi:namedview
     inkscape:current-layer="Layer_1"
     inkscape:window-maximized="1"
     inkscape:window-y="-8"
     inkscape:window-x="-8"
     inkscape:cy="210.65822"
     inkscape:cx="83.218627"
     inkscape:zoom="0.921875"
     showgrid="false"
     id="namedview57"
     inkscape:window-height="838"
     inkscape:window-width="1600"
     inkscape:pageshadow="2"
     inkscape:pageopacity="0"
     guidetolerance="10"
     gridtolerance="10"
     objecttolerance="10"
     borderopacity="1"
     bordercolor="#666666"
     pagecolor="#ffffff" /><g
     inkscape:groupmode="layer"
     id="layer1"
     inkscape:label="background"><circle
       style="opacity:1;fill:#009b77;fill-opacity:1;stroke:none;stroke-width:4.83199739;stroke-linecap:round;stroke-linejoin:round;stroke-miterlimit:4;stroke-dasharray:none;stroke-opacity:1"
       id="path4539"
       cx="256"
       cy="256"
       r="243.2"
       inkscape:export-xdpi="96"
       inkscape:export-ydpi="96" /></g><g
     id="g6"
     transform="matrix(0.63,0,0,0.63,94.72,94.72)"><g
       id="g4"><path
         d="M 455.611,187.151 C 446.617,140.987 433.248,104.769 414.742,76.428 380.693,24.286 330.252,0 256,0 181.748,0 131.306,24.286 97.256,76.428 78.749,104.769 65.381,140.987 56.387,187.151 47.25,234.051 42.808,290.177 42.808,358.734 v 7.406 l 5.732,4.689 c 2.142,1.752 54.122,43.967 199.093,135.868 L 256,512 l 8.366,-5.303 C 409.338,414.797 461.317,372.581 463.46,370.83 l 5.732,-4.689 v -7.406 C 469.191,290.178 464.749,234.052 455.611,187.151 Z M 256,474.988 C 144.886,404.262 90.707,363.956 74.079,351.148 74.71,227.692 90.869,143.365 123.423,93.515 151.542,50.455 192.43,31.252 256,31.252 c 63.569,0 104.457,19.203 132.577,62.263 32.553,49.85 48.712,134.177 49.343,257.633 -16.636,12.813 -70.814,53.12 -181.92,123.84 z"
         id="path2"
         inkscape:connector-curvature="0"
         style="fill:#ffffff" /></g></g><g
     id="g12"
     transform="matrix(0.63,0,0,0.63,94.72,94.72)"><g
       id="g10"><path
         d="m 298.823,178.621 c -17.436,-19.217 -35.202,-28.043 -35.95,-28.41 l -6.873,-3.366 -6.874,3.367 c -0.748,0.367 -18.513,9.192 -35.95,28.41 -23.097,25.456 -35.305,57.54 -35.305,92.784 0,82.302 64.61,144.686 67.362,147.301 L 256,428.945 266.767,418.706 c 2.751,-2.616 67.362,-64.999 67.362,-147.301 -0.001,-35.243 -12.21,-67.328 -35.306,-92.784 z M 256,384.215 c -16.693,-19.923 -46.877,-62.858 -46.877,-112.809 0,-51.755 32.328,-79.248 46.873,-88.998 14.59,9.782 46.881,37.275 46.881,88.998 0,49.95 -30.184,92.886 -46.877,112.809 z"
         id="path8"
         inkscape:connector-curvature="0"
         style="fill:#ffffff" /></g></g><g
     id="g18"
     transform="matrix(0.63,0,0,0.63,94.72,94.72)"><g
       id="g16"><path
         d="m 172.578,119.202 c -11.306,0 -20.507,9.295 -20.507,20.772 0,11.476 9.2,20.779 20.507,20.779 11.321,0 20.52,-9.304 20.52,-20.779 -0.001,-11.478 -9.199,-20.772 -20.52,-20.772 z"
         id="path14"
         inkscape:connector-curvature="0"
         style="fill:#ffffff" /></g></g><g
     id="g24"
     transform="matrix(0.63,0,0,0.63,94.72,94.72)"><g
       id="g22"><path
         d="m 339.267,119.039 c -11.415,0 -20.675,9.372 -20.675,20.934 0,11.562 9.26,20.934 20.675,20.934 11.402,0 20.661,-9.372 20.661,-20.934 -10e-4,-11.562 -9.26,-20.934 -20.661,-20.934 z"
         id="path20"
         inkscape:connector-curvature="0"
         style="fill:#ffffff" /></g></g></svg>