<?xml version="1.0" encoding="UTF-8" standalone="no"?>
<svg
   xmlns:dc="http://purl.org/dc/elements/1.1/"
   xmlns:cc="http://creativecommons.org/ns#"
   xmlns:rdf="http://www.w3.org/1999/02/22-rdf-syntax-ns#"
   xmlns:svg="http://www.w3.org/2000/svg"
   xmlns="http://www.w3.org/2000/svg"
   xmlns:sodipodi="http://sodipodi.sourceforge.net/DTD/sodipodi-0.dtd"
   xmlns:inkscape="http://www.inkscape.org/namespaces/inkscape"
   version="1.1"
   viewBox="0 0 512 512"
   enable-background="new 0 0 512 512"
   width="512px"
   height="512px"
   id="svg22"
   sodipodi:docname="light-bulb.svg"
   inkscape:version="0.92.1 r15371"
   inkscape:export-filename="E:\android_dev\icons\parrot\images\light-bulb.png"
   inkscape:export-xdpi="96"
   inkscape:export-ydpi="96">
  <metadata
     id="metadata28">
    <rdf:RDF>
      <cc:Work
         rdf:about="">
        <dc:format>image/svg+xml</dc:format>
        <dc:type
           rdf:resource="http://purl.org/dc/dcmitype/StillImage" />
        <dc:title></dc:title>
      </cc:Work>
    </rdf:RDF>
  </metadata>
  <defs
     id="defs26" />
  <sodipodi:namedview
     pagecolor="#ffffff"
     bordercolor="#666666"
     borderopacity="1"
     objecttolerance="10"
     gridtolerance="10"
     guidetolerance="10"
     inkscape:pageopacity="0"
     inkscape:pageshadow="2"
     inkscape:window-width="1366"
     inkscape:window-height="705"
     id="namedview24"
     showgrid="false"
     inkscape:pagecheckerboard="true"
     inkscape:zoom="0.65186406"
     inkscape:cx="351.05763"
     inkscape:cy="282.51382"
     inkscape:window-x="-8"
     inkscape:window-y="-8"
     inkscape:window-maximized="1"
     inkscape:current-layer="svg22" />
  <g
     id="g20">
    <g
       id="g18"
       style="fill:#231f20">
      <path
         d="M 338.6,136.1 C 315,113.4 284,101.7 251.2,102.9 188.3,105.4 137,158.6 136.8,221.6 c -0.1,27.9 9.7,55.1 27.6,76.5 25.8,31 40,70.1 40,110.2 0,0 -2.7,18.4 10.4,18.4 h 82.4 c 13.4,0 10.4,-18.4 10.4,-18.4 0,-39.2 14.4,-78 41.7,-112.2 16.9,-21.3 25.9,-46.9 25.9,-74.1 0,-32.7 -13,-63.3 -36.6,-85.9 z m -5.6,147 c -29.7,37.2 -45.6,79.6 -46.2,122.8 h -61.6 c -0.6,-44.1 -16.4,-87 -44.8,-121.1 -14.7,-17.7 -22.8,-40.1 -22.7,-63.1 0.2,-52 42.5,-95.9 94.4,-98 27.1,-1 52.7,8.7 72.1,27.4 19.5,18.7 30.2,43.9 30.2,70.9 -0.1,22.5 -7.4,43.6 -21.4,61.1 z"
         id="path2"
         inkscape:connector-curvature="0"
         style="fill:#03ca84;fill-opacity:1;opacity:0.81" />
      <path
         d="m 393.2,67.8 c -4.1,-4.1 -10.7,-4.1 -14.7,0 l -25.4,25.4 c -4.1,4.1 -4.1,10.7 0,14.7 4.1,4 10.7,4.1 14.7,0 l 25.4,-25.4 c 4.1,-4 4.1,-10.6 0,-14.7 z"
         id="path4"
         inkscape:connector-curvature="0"
         style="fill:#03ca84;fill-opacity:1;opacity:0.81" />
      <path
         d="m 297.6,440.9 h -83.2 c -5.8,0 -10.4,4.7 -10.4,10.4 0,5.8 4.7,10.4 10.4,10.4 h 83.2 c 5.8,0 10.4,-4.7 10.4,-10.4 0,-5.7 -4.7,-10.4 -10.4,-10.4 z"
         id="path6"
         inkscape:connector-curvature="0"
         style="fill:#03ca84;fill-opacity:1;opacity:0.81" />
      <path
         d="m 281.9,480.1 h -51.7 c -5.8,0 -10.4,4.7 -10.4,10.4 0,5.8 4.7,10.4 10.4,10.4 h 51.7 c 5.8,0 10.4,-4.7 10.4,-10.4 0,-5.7 -4.7,-10.4 -10.4,-10.4 z"
         id="path8"
         inkscape:connector-curvature="0"
         style="fill:#03ca84;fill-opacity:1;opacity:0.81" />
      <path
         d="m 256,67.7 c 5.8,0 10.4,-4.7 10.4,-10.4 V 21.4 C 266.4,15.6 261.7,11 256,11 c -5.7,0 -10.4,4.7 -10.4,10.4 v 35.9 c 0,5.8 4.6,10.4 10.4,10.4 z"
         id="path10"
         inkscape:connector-curvature="0"
         style="fill:#03ca84;fill-opacity:1;opacity:0.81" />
      <path
         d="m 158.9,108 c 4.1,-4.1 4.1,-10.7 0,-14.7 L 133.5,67.9 c -4.1,-4.1 -10.7,-4.1 -14.7,0 -4,4.1 -4.1,10.7 0,14.7 l 25.4,25.4 c 4.1,4 10.7,4 14.7,0 z"
         id="path12"
         inkscape:connector-curvature="0"
         style="fill:#03ca84;fill-opacity:1;opacity:0.81" />
      <path
         d="m 439.6,194.6 h -35.9 c -5.8,0 -10.4,4.7 -10.4,10.4 0,5.7 4.7,10.4 10.4,10.4 h 35.9 c 5.8,0 10.4,-4.7 10.4,-10.4 0,-5.7 -4.7,-10.4 -10.4,-10.4 z"
         id="path14"
         inkscape:connector-curvature="0"
         style="fill:#03ca84;fill-opacity:1;opacity:0.81" />
      <path
         d="M 108.3,194.6 H 72.4 c -5.8,0 -10.4,4.7 -10.4,10.4 0,5.7 4.7,10.4 10.4,10.4 h 35.9 c 5.8,0 10.4,-4.7 10.4,-10.4 0,-5.7 -4.6,-10.4 -10.4,-10.4 z"
         id="path16"
         inkscape:connector-curvature="0"
         style="fill:#03ca84;fill-opacity:1;opacity:0.81" />
    </g>
  </g>
  <text
     xml:space="preserve"
     style="font-style:normal;font-weight:normal;font-size:96px;line-height:1.25;font-family:sans-serif;letter-spacing:0px;word-spacing:0px;opacity:0.79599998;fill:#03ca84;fill-opacity:1;stroke:none;"
     x="236.3125"
     y="308.8125"
     id="text4507"><tspan
       sodipodi:role="line"
       id="tspan4505"
       x="236.3125"
       y="308.8125"
       style="font-style:normal;font-variant:normal;font-weight:bold;font-stretch:normal;font-size:160px;font-family:Calibri;-inkscape-font-specification:'Calibri Bold';fill:#03ca84;fill-opacity:1;">i</tspan></text>
</svg>
