<?xml version="1.0" encoding="UTF-8" standalone="no"?>
<!-- Generator: Adobe Illustrator 19.0.0, SVG Export Plug-In . SVG Version: 6.00 Build 0)  -->

<svg
   xmlns:dc="http://purl.org/dc/elements/1.1/"
   xmlns:cc="http://creativecommons.org/ns#"
   xmlns:rdf="http://www.w3.org/1999/02/22-rdf-syntax-ns#"
   xmlns:svg="http://www.w3.org/2000/svg"
   xmlns="http://www.w3.org/2000/svg"
   xmlns:sodipodi="http://sodipodi.sourceforge.net/DTD/sodipodi-0.dtd"
   xmlns:inkscape="http://www.inkscape.org/namespaces/inkscape"
   version="1.1"
   id="Layer_1"
   x="0px"
   y="0px"
   viewBox="0 0 481.882 481.882"
   style="enable-background:new 0 0 481.882 481.882;"
   xml:space="preserve"
   sodipodi:docname="numbers.svg"
   inkscape:version="0.92.1 r15371"
   inkscape:export-filename="E:\Github\ParrotJapanese\images\numbers.png"
   inkscape:export-xdpi="102"
   inkscape:export-ydpi="102"><metadata
     id="metadata55"><rdf:RDF><cc:Work
         rdf:about=""><dc:format>image/svg+xml</dc:format><dc:type
           rdf:resource="http://purl.org/dc/dcmitype/StillImage" /></cc:Work></rdf:RDF></metadata><defs
     id="defs53" /><sodipodi:namedview
     pagecolor="#ffffff"
     bordercolor="#666666"
     borderopacity="1"
     objecttolerance="10"
     gridtolerance="10"
     guidetolerance="10"
     inkscape:pageopacity="0"
     inkscape:pageshadow="2"
     inkscape:window-width="1366"
     inkscape:window-height="705"
     id="namedview51"
     showgrid="false"
     inkscape:zoom="0.48974646"
     inkscape:cx="-107.19833"
     inkscape:cy="240.94099"
     inkscape:window-x="-8"
     inkscape:window-y="-8"
     inkscape:window-maximized="1"
     inkscape:current-layer="Layer_1" /><g
     id="g4556"
     transform="matrix(0.9,0,0,0.9,24.0941,24.09415)"
     style="fill:#3c5cb2;fill-opacity:1"><g
       id="g6"
       style="fill:#3c5cb2;fill-opacity:1"><g
         id="g4"
         style="fill:#3c5cb2;fill-opacity:1"><path
           inkscape:connector-curvature="0"
           id="path2"
           d="M 198.701,255.813 H 27.332 C 12.273,255.813 0,268.085 0,283.144 v 171.369 c 0,15.059 12.273,27.331 27.332,27.331 h 171.369 c 15.059,0 27.332,-12.272 27.332,-27.331 V 283.144 c 0,-15.059 -12.273,-27.331 -27.332,-27.331 z M 156.306,430.117 H 71.793 v -19.881 l 35.141,-36.006 c 7.087,-7.198 12.137,-12.947 15.164,-17.23 3.028,-4.283 4.548,-8.425 4.548,-12.43 0,-3.989 -1.311,-7.338 -3.948,-10.029 -2.622,-2.679 -5.999,-4.018 -10.115,-4.018 -7.532,0 -14.676,5.372 -21.428,16.113 L 69.728,333.941 c 5.608,-8.678 11.747,-15.249 18.429,-19.713 6.682,-4.449 15.206,-6.683 25.543,-6.683 10.338,0 19.433,3.293 27.26,9.864 7.826,6.571 11.746,15.513 11.746,26.827 0,6.167 -1.576,12.081 -4.715,17.745 -3.153,5.65 -8.943,12.877 -17.411,21.68 l -21.595,22.459 h 47.321 z"
           style="fill:#3c5cb2;fill-opacity:1" /></g></g><g
       id="g12"
       style="fill:#3c5cb2;fill-opacity:1"><g
         id="g10"
         style="fill:#3c5cb2;fill-opacity:1"><path
           inkscape:connector-curvature="0"
           id="path8"
           d="m 326.626,0.038 h -171.37 c -15.134,0 -27.407,12.274 -27.407,27.333 v 171.37 c 0,15.134 12.273,27.406 27.407,27.406 h 171.369 c 15.059,0 27.332,-12.272 27.332,-27.406 V 27.37 C 353.958,12.311 341.685,0.038 326.626,0.038 Z m -61.46,172.945 H 239.455 V 75.955 H 216.66 V 53.16 h 48.506 z"
           style="fill:#3c5cb2;fill-opacity:1" /></g></g><g
       id="g18"
       style="fill:#3c5cb2;fill-opacity:1"><g
         id="g16"
         style="fill:#3c5cb2;fill-opacity:1"><path
           inkscape:connector-curvature="0"
           id="path14"
           d="M 454.475,255.813 H 283.106 c -15.059,0 -27.332,12.273 -27.332,27.332 v 171.369 c 0,15.059 12.273,27.331 27.332,27.331 h 171.369 c 15.134,0 27.407,-12.272 27.407,-27.331 v -171.37 c 0,-15.059 -12.273,-27.331 -27.407,-27.331 z m -55.573,162.899 c -8.51,7.143 -19.406,10.714 -32.658,10.714 -13.254,0 -26.688,-4.686 -40.29,-14.048 l 10.979,-21.262 c 11.314,7.995 21.428,11.999 30.342,11.999 5.371,0 9.793,-1.313 13.281,-3.935 3.488,-2.636 5.232,-6.432 5.232,-11.412 0,-4.966 -2.01,-8.914 -5.999,-11.829 -4.003,-2.903 -9.542,-4.366 -16.629,-4.366 -3.767,0 -9.082,1.089 -15.946,3.264 V 358.11 l 22.977,-27.078 H 332.65 v -22.796 h 73.367 v 18.513 l -24.512,27.943 c 9.598,1.605 17.02,5.623 22.28,12.082 5.259,6.459 7.882,13.909 7.882,22.377 0,12.569 -4.255,22.418 -12.765,29.561 z"
           style="fill:#3c5cb2;fill-opacity:1" /></g></g><g
       id="g20"
       style="fill:#3c5cb2;fill-opacity:1" /><g
       id="g22"
       style="fill:#3c5cb2;fill-opacity:1" /><g
       id="g24"
       style="fill:#3c5cb2;fill-opacity:1" /><g
       id="g26"
       style="fill:#3c5cb2;fill-opacity:1" /><g
       id="g28"
       style="fill:#3c5cb2;fill-opacity:1" /><g
       id="g30"
       style="fill:#3c5cb2;fill-opacity:1" /><g
       id="g32"
       style="fill:#3c5cb2;fill-opacity:1" /><g
       id="g34"
       style="fill:#3c5cb2;fill-opacity:1" /><g
       id="g36"
       style="fill:#3c5cb2;fill-opacity:1" /><g
       id="g38"
       style="fill:#3c5cb2;fill-opacity:1" /><g
       id="g40"
       style="fill:#3c5cb2;fill-opacity:1" /><g
       id="g42"
       style="fill:#3c5cb2;fill-opacity:1" /><g
       id="g44"
       style="fill:#3c5cb2;fill-opacity:1" /><g
       id="g46"
       style="fill:#3c5cb2;fill-opacity:1" /><g
       id="g48"
       style="fill:#3c5cb2;fill-opacity:1" /></g></svg>