<?xml version="1.0" encoding="UTF-8" standalone="no"?>
<!-- Generator: Adobe Illustrator 19.0.0, SVG Export Plug-In . SVG Version: 6.00 Build 0)  -->

<svg
   xmlns:dc="http://purl.org/dc/elements/1.1/"
   xmlns:cc="http://creativecommons.org/ns#"
   xmlns:rdf="http://www.w3.org/1999/02/22-rdf-syntax-ns#"
   xmlns:svg="http://www.w3.org/2000/svg"
   xmlns="http://www.w3.org/2000/svg"
   xmlns:sodipodi="http://sodipodi.sourceforge.net/DTD/sodipodi-0.dtd"
   xmlns:inkscape="http://www.inkscape.org/namespaces/inkscape"
   version="1.1"
   id="Layer_1"
   x="0px"
   y="0px"
   viewBox="0 0 512.001 512.001"
   xml:space="preserve"
   sodipodi:docname="parrot.svg"
   style="enable-background:new 0 0 512.001 512.001;"
   inkscape:version="0.92.1 r15371"><metadata
     id="metadata43"><rdf:RDF><cc:Work
         rdf:about=""><dc:format>image/svg+xml</dc:format><dc:type
           rdf:resource="http://purl.org/dc/dcmitype/StillImage" /><dc:title /></cc:Work></rdf:RDF></metadata><defs
     id="defs41" /><sodipodi:namedview
     pagecolor="#ffffff"
     bordercolor="#666666"
     borderopacity="1"
     objecttolerance="10"
     gridtolerance="10"
     guidetolerance="10"
     inkscape:pageopacity="0"
     inkscape:pageshadow="2"
     inkscape:window-width="1366"
     inkscape:window-height="705"
     id="namedview39"
     showgrid="false"
     inkscape:zoom="0.92187324"
     inkscape:cx="142.5476"
     inkscape:cy="291.55173"
     inkscape:window-x="-8"
     inkscape:window-y="-8"
     inkscape:window-maximized="1"
     inkscape:current-layer="Layer_1" /><g
     style="fill:#000000;fill-opacity:1"
     id="g4"><path
       style="fill:#000000;fill-opacity:1"
       inkscape:connector-curvature="0"
       id="path2"
       d="M 256.001,0 C 105.327,0 43.866,103.75 43.866,358.104 v 7.883 l 6.087,5.008 c 2.121,1.745 53.599,43.797 197.072,135.282 l 8.975,5.724 8.975,-5.724 C 408.448,414.792 459.927,372.741 462.047,370.995 l 6.088,-5.008 v -7.883 C 468.137,103.75 406.677,0 256.001,0 Z m -102.81,140.426 c 0,-11.42 9.102,-20.67 20.286,-20.67 11.199,0 20.298,9.249 20.298,20.67 0,11.419 -9.1,20.676 -20.298,20.676 -11.184,0 -20.286,-9.257 -20.286,-20.676 z m 108.58,272.118 -5.77,5.518 -5.77,-5.518 c -2.63,-2.515 -64.409,-62.511 -64.409,-141.335 0,-41.996 17.98,-70.745 33.064,-87.469 16.343,-18.117 32.735,-26.311 33.425,-26.65 l 3.69,-1.819 3.69,1.819 c 0.689,0.341 17.082,8.533 33.424,26.65 15.084,16.722 33.064,45.472 33.064,87.469 0.001,78.823 -61.778,138.819 -64.408,141.335 z m 76.602,-251.288 c -11.292,0 -20.453,-9.326 -20.453,-20.83 0,-11.504 9.16,-20.83 20.453,-20.83 11.279,0 20.439,9.326 20.439,20.83 0,11.504 -9.161,20.83 -20.439,20.83 z" /></g><g
     id="g8" /><g
     id="g10" /><g
     id="g12" /><g
     id="g14" /><g
     id="g16" /><g
     id="g18" /><g
     id="g20" /><g
     id="g22" /><g
     id="g24" /><g
     id="g26" /><g
     id="g28" /><g
     id="g30" /><g
     id="g32" /><g
     id="g34" /><g
     id="g36" /></svg>