<?xml version="1.0" encoding="UTF-8" standalone="no"?>
<!-- Generator: Adobe Illustrator 16.0.0, SVG Export Plug-In . SVG Version: 6.00 Build 0)  -->

<svg
   xmlns:dc="http://purl.org/dc/elements/1.1/"
   xmlns:cc="http://creativecommons.org/ns#"
   xmlns:rdf="http://www.w3.org/1999/02/22-rdf-syntax-ns#"
   xmlns:svg="http://www.w3.org/2000/svg"
   xmlns="http://www.w3.org/2000/svg"
   xmlns:sodipodi="http://sodipodi.sourceforge.net/DTD/sodipodi-0.dtd"
   xmlns:inkscape="http://www.inkscape.org/namespaces/inkscape"
   version="1.1"
   id="Capa_1"
   x="0px"
   y="0px"
   width="433.117px"
   height="433.117px"
   viewBox="0 0 433.117 433.117"
   style="enable-background:new 0 0 433.117 433.117;"
   xml:space="preserve"
   sodipodi:docname="resource.svg"
   inkscape:export-filename="E:\Github\ParrotJapanese\images\resource.png"
   inkscape:export-xdpi="113.48"
   inkscape:export-ydpi="113.48"
   inkscape:version="0.92.1 r15371"><metadata
     id="metadata47"><rdf:RDF><cc:Work
         rdf:about=""><dc:format>image/svg+xml</dc:format><dc:type
           rdf:resource="http://purl.org/dc/dcmitype/StillImage" /></cc:Work></rdf:RDF></metadata><defs
     id="defs45" /><sodipodi:namedview
     pagecolor="#ffffff"
     bordercolor="#666666"
     borderopacity="1"
     objecttolerance="10"
     gridtolerance="10"
     guidetolerance="10"
     inkscape:pageopacity="0"
     inkscape:pageshadow="2"
     inkscape:window-width="1366"
     inkscape:window-height="705"
     id="namedview43"
     showgrid="false"
     inkscape:zoom="0.5448874"
     inkscape:cx="-96.350185"
     inkscape:cy="216.5585"
     inkscape:window-x="-8"
     inkscape:window-y="-8"
     inkscape:window-maximized="1"
     inkscape:current-layer="Capa_1" /><g
     id="g10"
     style="fill:#3c5cb2;fill-opacity:1"
     transform="matrix(0.95,0,0,1,10.82794,0)"><g
       id="g8"
       style="fill:#3c5cb2;fill-opacity:1"><path
         d="m 206.245,281.771 c -1.422,-0.481 -2.989,-0.004 -3.902,1.188 l -25.484,33.292 c -1.49,1.943 -3.846,3.104 -6.302,3.104 -1.382,0 -2.739,-0.358 -3.934,-1.045 L 49.856,251.671 c -1.083,-0.617 -2.414,-0.613 -3.493,0.014 -1.078,0.627 -1.742,1.779 -1.742,3.027 v 51.977 c 0,1.25 0.666,2.404 1.747,3.029 l 157,90.834 c 0.543,0.312 1.147,0.471 1.753,0.471 0.604,0 1.208,-0.156 1.749,-0.469 1.084,-0.625 1.751,-1.781 1.751,-3.031 V 285.085 c 0.001,-1.5 -0.956,-2.834 -2.376,-3.314 z"
         id="path2"
         inkscape:connector-curvature="0"
         style="fill:#3c5cb2;fill-opacity:1" /><path
         d="m 386.75,251.685 c -1.077,-0.625 -2.408,-0.631 -3.492,-0.014 l -116.776,66.646 c -1.186,0.679 -2.54,1.037 -3.922,1.037 -2.458,0 -4.814,-1.157 -6.301,-3.1 l -25.486,-33.297 c -0.913,-1.191 -2.482,-1.67 -3.902,-1.188 -1.421,0.479 -2.377,1.813 -2.377,3.313 V 397.52 c 0,1.25 0.667,2.406 1.751,3.031 0.541,0.312 1.146,0.469 1.749,0.469 0.605,0 1.21,-0.158 1.753,-0.471 l 157,-90.834 c 1.081,-0.625 1.747,-1.779 1.747,-3.029 v -51.978 c -0.001,-1.244 -0.665,-2.396 -1.744,-3.023 z"
         id="path4"
         inkscape:connector-curvature="0"
         style="fill:#3c5cb2;fill-opacity:1" /><path
         d="m 433.07,109.572 c -0.188,-1.134 -0.921,-2.104 -1.96,-2.595 L 273.064,32.428 c -1.266,-0.596 -2.766,-0.383 -3.812,0.545 l -45.172,39.973 -5.884,-3.121 c -1.026,-0.545 -2.256,-0.545 -3.282,0 l -5.882,3.123 -45.163,-39.975 c -1.048,-0.927 -2.548,-1.14 -3.813,-0.545 L 2.008,106.977 c -1.039,0.49 -1.772,1.461 -1.96,2.595 -0.188,1.134 0.194,2.288 1.021,3.087 l 47.161,45.59 -7.429,3.945 c -0.589,0.313 -1.076,0.787 -1.404,1.367 l -25.615,45.236 c -0.95,1.678 -0.364,3.809 1.311,4.764 l 150.726,86.023 c 1.521,0.869 3.448,0.48 4.514,-0.91 l 31.849,-41.598 c 0.62,-0.811 0.856,-1.85 0.646,-2.848 -0.209,-0.998 -0.843,-1.855 -1.736,-2.346 L 51.466,169.45 210.859,84.872 l 0.003,103.995 -39.13,22.674 c -1.092,0.633 -1.759,1.805 -1.745,3.066 0.014,1.261 0.705,2.418 1.811,3.028 l 43.069,23.729 c 1.052,0.579 2.326,0.579 3.378,0 l 43.072,-23.729 c 1.104,-0.609 1.797,-1.767 1.811,-3.03 0.015,-1.262 -0.652,-2.432 -1.744,-3.064 l -39.13,-22.674 0.001,-103.996 159.394,84.578 -149.623,82.434 c -0.895,0.49 -1.527,1.348 -1.736,2.346 -0.21,0.998 0.026,2.037 0.646,2.849 l 31.85,41.599 c 0.685,0.891 1.724,1.37 2.781,1.37 0.591,0 1.188,-0.147 1.732,-0.461 l 150.726,-86.023 c 1.675,-0.955 2.261,-3.086 1.312,-4.764 L 393.715,163.56 c -0.328,-0.58 -0.814,-1.053 -1.402,-1.365 l -7.421,-3.945 47.159,-45.59 c 0.824,-0.801 1.206,-1.955 1.019,-3.088 z"
         id="path6"
         inkscape:connector-curvature="0"
         style="fill:#3c5cb2;fill-opacity:1" /></g></g><g
     id="g12" /><g
     id="g14" /><g
     id="g16" /><g
     id="g18" /><g
     id="g20" /><g
     id="g22" /><g
     id="g24" /><g
     id="g26" /><g
     id="g28" /><g
     id="g30" /><g
     id="g32" /><g
     id="g34" /><g
     id="g36" /><g
     id="g38" /><g
     id="g40" /></svg>